# AST/ASF file generated using VICON BodyLanguage
# -----------------------------------------------
:version 1.10
:name VICON
:units
  mass 1.0
  length 0.45
  angle deg
:documentation
   .ast/.asf automatically generated from VICON data using
   VICON BodyBuilder and BodyLanguage model FoxedUp or BRILLIANT.MOD
:root
   order TX TY TZ RX RY RZ
   axis XYZ
   position 0 0 0  
   orientation 0 0 0 
:bonedata
  begin
     id 1 
     name lhipjoint
     direction 0.57768 -0.667037 0.470475 
     length 2.36008 
     axis 0 0 0  XYZ
  end
  begin
     id 2 
     name lfemur
     direction 0.34202 -0.939693 0  
     length 6.97235  
     axis 0 0 20  XYZ
    dof rx ry rz
    limits (-160.0 20.0)
           (-70.0 70.0)
           (-60.0 70.0)
  end
  begin
     id 3 
     name ltibia
     direction 0.34202 -0.939693 0   
     length 6.93428   
     axis 0 0 20   XYZ
    dof rx
    limits (-10.0 170.0)
  end
  begin
     id 4 
     name lfoot
     direction 0.133018 -0.365463 0.921272   
     length 2.18603   
     axis -90 7.62852e-016 20   XYZ
    dof rx rz
    limits (-45.0 90.0)
           (-70.0 20.0)
  end
  begin
     id 5 
     name ltoes
     direction 1.53519e-011 -4.22055e-011 1   
     length 1.07924   
     axis -90 7.62852e-016 20   XYZ
    dof rx
    limits (-90.0 20.0)
  end
  begin
     id 6 
     name rhipjoint
     direction -0.577712 -0.667019 0.470462   
     length 2.36015  
     axis 0 0 0  XYZ 
  end
  begin
     id 7 
     name rfemur
     direction -0.34202 -0.939693 0   
     length 6.71195   
     axis 0 0 -20   XYZ
    dof rx ry rz
    limits (-160.0 20.0)
           (-70.0 70.0)
           (-70.0 60.0)
  end
  begin
     id 8 
     name rtibia
     direction -0.34202 -0.939693 0   
     length 7.04592   
     axis 0 0 -20   XYZ
    dof rx
    limits (-10.0 170.0)
 end
 begin
     id 9 
     name rfoot
     direction -0.113796 -0.312651 0.943027   
     length 2.03846  
     axis -90 -7.62852e-016 -20   XYZ
    dof rx rz
    limits (-45.0 90.0)
           (-20.0 70.0)
  end
  begin
     id 10 
     name rtoes
     direction -1.53586e-011 -4.218e-011 1   
     length 1.01562   
     axis -90 -7.62852e-016 -20   XYZ
    dof rx
    limits (-90.0 20.0)
  end
  begin
     id 11 
     name lowerback
     direction -0.0417299 0.991937 -0.119667   
     length 2.05257   
     axis 0 0 0   XYZ
    dof rx ry rz
    limits (-20.0 45.0)
           (-30.0 30.0)
           (-30.0 30.0)
  end
  begin
     id 12 
     name upperback
     direction -0.00017666 0.999999 0.00105178   
     length 2.05693   
     axis 0 0 0   XYZ
    dof rx ry rz
    limits (-20.0 45.0)
           (-30.0 30.0)
           (-30.0 30.0)
  end
  begin
     id 13 
     name thorax
     direction 0.0185169 0.998203 0.0569866   
     length 2.0932   
     axis 0 0 0   XYZ
    dof rx ry rz
    limits (-20.0 45.0)
           (-30.0 30.0)
           (-30.0 30.0)
  end
  begin
     id 14 
     name lowerneck
     direction -0.0212406 0.982645 0.184277   
     length 1.72509   
     axis 0 0 0   XYZ
    dof rx ry rz
    limits (-20.0 45.0)
           (-30.0 30.0)
           (-30.0 30.0)
  end
  begin
     id 15 
     name upperneck
     direction 0.00528579 0.965323 -0.261004   
     length 1.76294   
     axis 0 0 0   XYZ
    dof rx ry rz
    limits (-20.0 45.0)
           (-30.0 30.0)
           (-30.0 30.0)
  end
  begin
     id 16
     name head
     direction 0.00695421 0.994078 -0.108445  
     length 1.78678  
     axis 0 0 0   XYZ
    dof rx ry rz
    limits (-20.0 45.0)
           (-30.0 30.0)
           (-30.0 30.0)
  end
  begin
     id 17 
     name lclavicle
     direction 0.97277 0.211305 -0.095232  
     length 3.84823  
     axis 0 0 0   XYZ
    dof ry rz
    limits (-20.0 10.0)
           (0.0 20.0)
  end
  begin
     id 18 
     name lhumerus
     direction 1 -4.48957e-011 -1.98313e-027   
     length 4.97185   
     axis 180 -30 -90   XYZ
    dof rx ry rz
    limits (-60.0 90.0)
           (-90.0 90.0)
           (-90.0 90.0)
  end
  begin
     id 19
     name lradius
     direction 1 -4.4898e-011 7.31063e-027   
     length 3.35811   
     axis 180 -30 -90   XYZ
    dof rx
    limits (-10.0 170.0)
  end
  begin
     id 20
     name lwrist
     direction 1 -4.48938e-011 9.95048e-027   
     length 1.67905   
     axis -8.75986e-015 90 90   XYZ
    dof ry
    limits (-180.0 0.0)
 end
  begin
     id 21 
     name lhand
     direction 1 -4.4901e-011 1.9901e-026   
     length 0.622776   
     axis -1.26985e-014 90 90   XYZ
    dof rx rz
    limits (-90.0 90.0)
           (-45.0 45.0)
  end
  begin
     id 22 
     name lfingers
     direction 1 -4.48961e-011 3.98019e-026   
     length 0.502098   
     axis -2.5397e-014 90 90   XYZ
    dof rx
    limits (0.0 90.0)
  end
  begin
     id 23
     name lthumb
     direction 0.707107 -6.34933e-011 0.707107   
     length 0.720915   
     axis -90 45 2.85299e-015   XYZ
    dof rx rz
    limits (-45.0 45.0)
           (-45.0 45.0)
  end
  begin
     id 24 
     name rclavicle
     direction -0.990867 0.133739 -0.0172226   
     length 3.78845  
     axis 0 0 0   XYZ 
    dof ry rz
    limits (-10.0 20.0)
           (-20.0 0.0)
  end
  begin
     id 25 
     name rhumerus
     direction -1 -4.48972e-011 -1.99267e-027  
     length 4.96493   
     axis 180 30 90   XYZ
    dof rx ry rz
    limits (-90.0 60.0)
           (-90.0 90.0)
           (-90.0 90.0)
  end
  begin
     id 26 
     name rradius
     direction -1 -4.48969e-011 8.96093e-027   
     length 3.34929   
     axis 180 30 90   XYZ
    dof rx
    limits (-10.0 170.0)
  end
  begin
     id 27 
     name rwrist
     direction -1 -4.48953e-011 9.95048e-027   
     length 1.67464   
     axis -8.75986e-015 -90 -90   XYZ
    dof ry
    limits (-180.0 0.0)
  end
  begin
     id 28
     name rhand
     direction -1 -4.49001e-011 1.9901e-026   
     length 0.638041   
     axis -1.26985e-014 -90 -90   XYZ
    dof rx rz
    limits (-90.0 90.0)
           (-45.0 45.0)
  end
  begin
     id 29
     name rfingers
     direction -1 -4.48967e-011 3.98019e-026   
     length 0.514405   
     axis -2.5397e-014 -90 -90   XYZ
    dof rx
    limits (0.0 90.0)
  end
  begin
     id 30
     name rthumb
     direction -0.707107 -6.34904e-011 0.707107   
     length 0.738586   
     axis -90 -45 -2.85299e-015   XYZ
    dof rx rz
    limits (-45.0 45.0)
           (-45.0 45.0)
  end
:hierarchy
  begin
    root lhipjoint rhipjoint lowerback
    lhipjoint lfemur
    lfemur ltibia
    ltibia lfoot
    lfoot ltoes
    rhipjoint rfemur
    rfemur rtibia
    rtibia rfoot
    rfoot rtoes
    lowerback upperback
    upperback thorax
    thorax lowerneck lclavicle rclavicle
    lowerneck upperneck
    upperneck head
    lclavicle lhumerus
    lhumerus lradius
    lradius lwrist
    lwrist lhand lthumb
    lhand lfingers
    rclavicle rhumerus
    rhumerus rradius
    rradius rwrist
    rwrist rhand rthumb
    rhand rfingers
  end

#!OML:ASF E:\Mandelcareful walks\Project 1\Capture day 1\Session 1\Subject1.ASF
:FULLY-SPECIFIED
:DEGREES
391
root -9.08849 15.8723 -7.31799 -537.203 -63.0863 -180.753
lowerback 6.58076 -0.395659 -2.2031
upperback 4.67869 -0.84921 -2.34886
thorax 1.12857 -0.535819 -1.13649
lowerneck -19.8614 13.0431 2.24559
upperneck 35.3659 22.4919 -13.3255
head 18.9895 6.78556 -1.6783
rclavicle 2.28602e-014 -9.54166e-015
rhumerus -57.6075 10.0902 -87.6345
rradius 57.4749
rwrist -30.5342
rhand -2.26687 -24.4942
rfingers 7.12502
rthumb 23.4174 -53.0894
lclavicle 2.28602e-014 -9.54166e-015
lhumerus -30.5181 -27.2812 81.0466
lradius 94.8906
lwrist 18.6446
lhand -25.8219 -25.1494
lfingers 7.12502
lthumb 0.717755 4.82915
rfemur -33.2343 2.06605 3.71569
rtibia 27.9868
rfoot -0.564949 -17.6167
rtoes -24.0096
lfemur -12.5764 2.32595 -26.0622
ltibia 60.1797
lfoot -11.4322 -1.04537
ltoes 12.1256
392
root -9.50533 15.8169 -7.64271 -538.834 -65.7878 -179.084
lowerback 6.50258 -0.801057 -1.52095
upperback 4.35266 -1.3208 -1.89173
thorax 0.827848 -0.744071 -1.01819
lowerneck -19.3026 13.0986 2.38289
upperneck 36.1335 22.5554 -13.2102
head 19.3173 6.78951 -1.70575
rclavicle -7.35503e-014 1.27222e-014
rhumerus -58.8239 10.6243 -88.1492
rradius 57.9251
rwrist -30.1055
rhand -0.325204 -24.885
rfingers 7.12502
rthumb 25.2788 -53.2302
lclavicle -7.35503e-014 1.27222e-014
lhumerus -31.6638 -28.2954 82.2235
lradius 94.1104
lwrist 18.9537
lhand -24.4117 -22.698
lfingers 7.12502
lthumb 2.07971 7.27159
rfemur -31.8757 -1.96039 6.02607
rtibia 27.5774
rfoot 4.19411 -15.5477
rtoes -35.762
lfemur -13.3422 1.77892 -24.5963
ltibia 64.2319
lfoot -8.37604 -0.215106
ltoes 3.11796
393
root -9.84675 15.7348 -7.9426 -541.432 -68.8138 -177.25
lowerback 7.81996 -1.2126 -1.01238
upperback 4.30455 -1.86722 -1.5821
thorax 0.041159 -1.00886 -0.917768
lowerneck -19.1841 13.1738 2.47237
upperneck 36.9058 22.5766 -12.6917
head 19.6562 6.81985 -1.51326
rclavicle -5.08889e-014 2.38542e-014
rhumerus -58.8936 10.9948 -88.7667
rradius 57.8096
rwrist -29.218
rhand 1.39177 -25.0117
rfingers 7.12502
rthumb 26.9228 -53.114
lclavicle -5.08889e-014 2.38542e-014
lhumerus -32.3169 -29.2543 83.0701
lradius 91.8445
lwrist 22.104
lhand -23.0267 -22.1896
lfingers 7.12502
lthumb 3.4173 7.76278
rfemur -29.4768 -5.97026 8.07452
rtibia 28.8691
rfoot 5.29131 -12.4335
rtoes -22.7936
lfemur -14.2165 0.980443 -23.1911
ltibia 68.7328
lfoot -6.01648 1.16714
ltoes 7.02656
394
root -10.1938 15.6561 -8.21979 -544.825 -71.3898 -174.592
lowerback 9.08702 -1.49521 -0.163829
upperback 4.11404 -2.18908 -1.30639
thorax -0.875247 -1.157 -1.04222
lowerneck -18.1016 13.1419 3.00225
upperneck 36.5647 22.4613 -13.285
head 19.3718 6.86983 -1.95098
rclavicle 3.73715e-014 8.74653e-015
rhumerus -58.871 12.3194 -89.7134
rradius 57.3385
rwrist -28.7774
rhand 2.39905 -25.2118
rfingers 7.12502
rthumb 27.8862 -53.1616
lclavicle 3.73715e-014 8.74653e-015
lhumerus -33.5142 -29.644 84.2852
lradius 89.5548
lwrist 24.3231
lhand -22.2435 -19.9672
lfingers 7.12502
lthumb 4.17367 9.97168
rfemur -26.7983 -8.31811 9.05995
rtibia 31.4018
rfoot -2.82985 -8.83969
rtoes -4.03849
lfemur -15.0664 0.578196 -22.009
ltibia 73.0812
lfoot -7.61293 4.04706
ltoes 4.78722
395
root -10.4997 15.5305 -8.47917 -546.65 -73.3771 -174.273
lowerback 11.169 -1.42232 0.0437857
upperback 4.35227 -2.12095 -1.39376
thorax -1.77558 -1.13492 -1.20095
lowerneck -17.7381 13.0089 3.24745
upperneck 36.3773 22.25 -13.4983
head 19.2196 6.85212 -2.14754
rclavicle -5.36719e-015 7.15625e-015
rhumerus -58.3612 13.7052 -90.5624
rradius 57.313
rwrist -28.2175
rhand 2.82683 -25.5431
rfingers 7.12502
rthumb 28.2951 -53.4259
lclavicle -5.36719e-015 7.15625e-015
lhumerus -34.0373 -29.7874 85.4269
lradius 86.3218
lwrist 25.0097
lhand -21.5414 -17.8811
lfingers 7.12502
lthumb 4.8516 12.0433
rfemur -25.0135 -10.3053 9.09347
rtibia 34.8699
rfoot -6.69917 -7.62404
rtoes -5.26699
lfemur -16.1573 0.51052 -21.8605
ltibia 77.1312
lfoot -9.08016 6.98755
ltoes 5.73373
396
root -10.8079 15.3956 -8.70674 -549.739 -74.5871 -172.472
lowerback 13.6887 -1.28748 0.757027
upperback 4.19375 -1.87777 -1.30742
thorax -3.32124 -1.02321 -1.48198
lowerneck -17.0364 13.0537 3.57404
upperneck 36.2081 22.3044 -13.8393
head 19.0735 6.93938 -2.37447
rclavicle 4.53229e-014 -8.74653e-015
rhumerus -57.6918 15.2578 -91.1092
rradius 56.8873
rwrist -27.0718
rhand 2.83988 -25.4581
rfingers 7.12502
rthumb 28.3075 -53.3389
lclavicle 4.53229e-014 -8.74653e-015
lhumerus -35.3914 -28.7395 87.1061
lradius 82.6402
lwrist 24.5759
lhand -21.6537 -15.6529
lfingers 7.12502
lthumb 4.7432 14.274
rfemur -24.1884 -12.4474 9.52078
rtibia 38.5945
rfoot -6.99815 -6.51895
rtoes -6.84524
lfemur -17.4061 1.07838 -21.3861
ltibia 80.5729
lfoot -10.5045 9.25313
ltoes 1.06313
397
root -11.1269 15.2547 -8.90953 -556.65 -75.1712 -166.599
lowerback 15.6168 -1.2196 2.7706
upperback 4.41984 -1.48814 -0.998976
thorax -4.14373 -0.855028 -2.33194
lowerneck -17.0018 13.0632 3.56118
upperneck 35.8891 22.428 -14.1024
head 18.9514 7.00012 -2.4424
rclavicle -1.90833e-014 -4.77083e-015
rhumerus -55.7054 17.4918 -91.5686
rradius 55.2308
rwrist -25.8919
rhand 2.02167 -24.9098
rfingers 7.12502
rthumb 27.5253 -52.9177
lclavicle -1.90833e-014 -4.77083e-015
lhumerus -36.0782 -26.7964 88.4443
lradius 78.3849
lwrist 23.2872
lhand -21.8444 -14.9057
lfingers 7.12502
lthumb 4.55904 15.0252
rfemur -23.1939 -14.5588 10.7803
rtibia 41.9123
rfoot -8.59496 -5.27031
rtoes -9.29845
lfemur -19.0387 2.15251 -19.7299
ltibia 83.4288
lfoot -12.5333 8.12275
ltoes 0.888663
398
root -11.4629 15.1503 -9.11909 -557.674 -75.996 -166.033
lowerback 16.6186 -0.953573 2.72301
upperback 4.54858 -1.1368 -0.937817
thorax -4.51976 -0.693712 -2.29697
lowerneck -17.0466 13.181 3.81483
upperneck 35.3182 22.6641 -14.5019
head 18.7933 7.14616 -2.56279
rclavicle -1.59028e-014 2.78299e-014
rhumerus -53.3168 19.4606 -91.526
rradius 53.3808
rwrist -23.2085
rhand 0.999433 -25.0405
rfingers 7.12502
rthumb 26.5473 -53.2002
lclavicle -1.59028e-014 2.78299e-014
lhumerus -36.6148 -24.1246 89.3951
lradius 73.548
lwrist 21.6031
lhand -23.1602 -13.7025
lfingers 7.12502
lthumb 3.28838 16.2519
rfemur -22.518 -16.8022 10.4197
rtibia 44.8165
rfoot -11.1952 -3.84293
rtoes -11.5376
lfemur -21.517 3.51272 -19.8779
ltibia 85.213
lfoot -14.3428 7.03461
ltoes -1.64752
399
root -11.7974 15.0555 -9.3238 -561.165 -76.7174 -162.868
lowerback 17.4136 -0.788859 2.85661
upperback 4.88587 -0.886464 -0.496276
thorax -4.56336 -0.582096 -1.95021
lowerneck -17.2588 13.3899 3.93852
upperneck 34.1802 23.1736 -15.3744
head 18.4909 7.36006 -2.76686
rclavicle 1.73937e-014 -1.27222e-014
rhumerus -50.0403 21.3061 -90.4716
rradius 50.9775
rwrist -19.0379
rhand -0.0223691 -25.126
rfingers 7.12502
rthumb 25.5689 -53.4298
lclavicle 1.73937e-014 -1.27222e-014
lhumerus -36.7728 -20.8094 90.1069
lradius 68.1793
lwrist 18.7382
lhand -25.5685 -11.7775
lfingers 7.12502
lthumb 0.962488 18.2001
rfemur -21.2895 -18.2706 10.6666
rtibia 46.9012
rfoot -13.9944 -3.37521
rtoes -12.3694
lfemur -24.0214 5.07393 -19.6391
ltibia 86.0073
lfoot -15.6882 6.66326
ltoes -1.59762
